HIERARCHY
ROOT mixamorig:Hips
{
	OFFSET -0.000008 104.274872 1.554316
	CHANNELS 6 Xposition Yposition Zposition Xrotation Yrotation Zrotation
	JOINT mixamorig:Spine
	{
		OFFSET -0.000005 10.181595 0.131519
		CHANNELS 6 Xposition Yposition Zposition Xrotation Yrotation Zrotation
		JOINT mixamorig:Spine1
		{
			OFFSET -0.000000 9.893959 -1.470707
			CHANNELS 6 Xposition Yposition Zposition Xrotation Yrotation Zrotation
			JOINT mixamorig:Spine2
			{
				OFFSET -0.000000 9.220757 -1.370641
				CHANNELS 6 Xposition Yposition Zposition Xrotation Yrotation Zrotation
				JOINT mixamorig:Neck
				{
					OFFSET 0.000001 16.740417 -2.049036
					CHANNELS 6 Xposition Yposition Zposition Xrotation Yrotation Zrotation
					JOINT mixamorig:Head
					{
						OFFSET 0.000000 9.617874 1.685006
						CHANNELS 6 Xposition Yposition Zposition Xrotation Yrotation Zrotation
						JOINT mixamorig:HeadTop_End
						{
							OFFSET 0.000002 22.037354 7.501101
							CHANNELS 6 Xposition Yposition Zposition Xrotation Yrotation Zrotation
							End Site
							{
								OFFSET 0.000168 2310.654297 -282.823242
							}
						}
					}
				}
				JOINT mixamorig:RightShoulder
				{
					OFFSET -4.569970 11.014908 -2.160885
					CHANNELS 6 Xposition Yposition Zposition Xrotation Yrotation Zrotation
					JOINT mixamorig:RightArm
					{
						OFFSET -10.592851 -0.524811 -2.232101
						CHANNELS 6 Xposition Yposition Zposition Xrotation Yrotation Zrotation
						JOINT mixamorig:RightForeArm
						{
							OFFSET -27.841511 0.000031 -0.000004
							CHANNELS 6 Xposition Yposition Zposition Xrotation Yrotation Zrotation
							JOINT mixamorig:RightHand
							{
								OFFSET -28.328831 -0.000015 0.000015
								CHANNELS 6 Xposition Yposition Zposition Xrotation Yrotation Zrotation
								JOINT mixamorig:RightHandThumb1
								{
									OFFSET -2.464806 -1.573990 2.681852
									CHANNELS 6 Xposition Yposition Zposition Xrotation Yrotation Zrotation
									JOINT mixamorig:RightHandThumb2
									{
										OFFSET -3.215179 -1.872803 1.924282
										CHANNELS 6 Xposition Yposition Zposition Xrotation Yrotation Zrotation
										JOINT mixamorig:RightHandThumb3
										{
											OFFSET -2.654831 -1.527969 1.512609
											CHANNELS 6 Xposition Yposition Zposition Xrotation Yrotation Zrotation
											JOINT mixamorig:RightHandThumb4
											{
												OFFSET -2.018814 -1.152008 1.108052
												CHANNELS 6 Xposition Yposition Zposition Xrotation Yrotation Zrotation
												End Site
												{
													OFFSET -188.809540 -114.533607 132.431396
												}
											}
										}
									}
								}
								JOINT mixamorig:RightHandIndex1
								{
									OFFSET -9.108284 -0.517868 2.259835
									CHANNELS 6 Xposition Yposition Zposition Xrotation Yrotation Zrotation
									JOINT mixamorig:RightHandIndex2
									{
										OFFSET -3.699989 0.000000 0.001215
										CHANNELS 6 Xposition Yposition Zposition Xrotation Yrotation Zrotation
										JOINT mixamorig:RightHandIndex3
										{
											OFFSET -2.850006 0.000031 -0.000522
											CHANNELS 6 Xposition Yposition Zposition Xrotation Yrotation Zrotation
											JOINT mixamorig:RightHandIndex4
											{
												OFFSET -2.772186 -0.000015 -0.000020
												CHANNELS 6 Xposition Yposition Zposition Xrotation Yrotation Zrotation
												End Site
												{
													OFFSET -277.218445 0.000000 -0.050231
												}
											}
										}
									}
								}
								JOINT mixamorig:RightHandMiddle1
								{
									OFFSET -9.532516 -0.000031 -0.000023
									CHANNELS 6 Xposition Yposition Zposition Xrotation Yrotation Zrotation
									JOINT mixamorig:RightHandMiddle2
									{
										OFFSET -3.700005 -0.000015 0.003713
										CHANNELS 6 Xposition Yposition Zposition Xrotation Yrotation Zrotation
										JOINT mixamorig:RightHandMiddle3
										{
											OFFSET -2.949974 0.000015 -0.002054
											CHANNELS 6 Xposition Yposition Zposition Xrotation Yrotation Zrotation
											JOINT mixamorig:RightHandMiddle4
											{
												OFFSET -2.946640 0.000000 -0.000156
												CHANNELS 6 Xposition Yposition Zposition Xrotation Yrotation Zrotation
												End Site
												{
													OFFSET -294.664337 0.000000 -0.113670
												}
											}
										}
									}
								}
								JOINT mixamorig:RightHandRing1
								{
									OFFSET -9.103600 -0.043076 -1.865134
									CHANNELS 6 Xposition Yposition Zposition Xrotation Yrotation Zrotation
									JOINT mixamorig:RightHandRing2
									{
										OFFSET -3.379288 0.000000 -0.001055
										CHANNELS 6 Xposition Yposition Zposition Xrotation Yrotation Zrotation
										JOINT mixamorig:RightHandRing3
										{
											OFFSET -2.889687 -0.000015 0.000379
											CHANNELS 6 Xposition Yposition Zposition Xrotation Yrotation Zrotation
											JOINT mixamorig:RightHandRing4
											{
												OFFSET -2.638809 -0.000015 0.000941
												CHANNELS 6 Xposition Yposition Zposition Xrotation Yrotation Zrotation
												End Site
												{
													OFFSET -263.880371 0.000000 0.516020
												}
											}
										}
									}
								}
								JOINT mixamorig:RightHandPinky1
								{
									OFFSET -8.076683 -0.486710 -3.806280
									CHANNELS 6 Xposition Yposition Zposition Xrotation Yrotation Zrotation
									JOINT mixamorig:RightHandPinky2
									{
										OFFSET -3.600014 -0.000015 -0.003747
										CHANNELS 6 Xposition Yposition Zposition Xrotation Yrotation Zrotation
										JOINT mixamorig:RightHandPinky3
										{
											OFFSET -2.099983 0.000000 -0.005739
											CHANNELS 6 Xposition Yposition Zposition Xrotation Yrotation Zrotation
											JOINT mixamorig:RightHandPinky4
											{
												OFFSET -2.115768 -0.000031 -0.003680
												CHANNELS 6 Xposition Yposition Zposition Xrotation Yrotation Zrotation
												End Site
												{
													OFFSET -211.577087 0.000000 -0.350686
												}
											}
										}
									}
								}
							}
						}
					}
				}
				JOINT mixamorig:LeftShoulder
				{
					OFFSET 4.570447 11.014725 -2.160855
					CHANNELS 6 Xposition Yposition Zposition Xrotation Yrotation Zrotation
					JOINT mixamorig:LeftArm
					{
						OFFSET 10.592371 -0.524597 -2.232119
						CHANNELS 6 Xposition Yposition Zposition Xrotation Yrotation Zrotation
						JOINT mixamorig:LeftForeArm
						{
							OFFSET 27.841532 -0.000031 0.000026
							CHANNELS 6 Xposition Yposition Zposition Xrotation Yrotation Zrotation
							JOINT mixamorig:LeftHand
							{
								OFFSET 28.328846 -0.000061 0.000022
								CHANNELS 6 Xposition Yposition Zposition Xrotation Yrotation Zrotation
								JOINT mixamorig:LeftHandThumb1
								{
									OFFSET 2.466141 -1.576172 2.681732
									CHANNELS 6 Xposition Yposition Zposition Xrotation Yrotation Zrotation
									JOINT mixamorig:LeftHandThumb2
									{
										OFFSET 3.217812 -1.872070 1.916482
										CHANNELS 6 Xposition Yposition Zposition Xrotation Yrotation Zrotation
										JOINT mixamorig:LeftHandThumb3
										{
											OFFSET 2.656029 -1.528778 1.514513
											CHANNELS 6 Xposition Yposition Zposition Xrotation Yrotation Zrotation
											JOINT mixamorig:LeftHandThumb4
											{
												OFFSET 2.020889 -1.154053 1.115139
												CHANNELS 6 Xposition Yposition Zposition Xrotation Yrotation Zrotation
												End Site
												{
													OFFSET 190.885437 -115.081749 130.048782
												}
											}
										}
									}
								}
								JOINT mixamorig:LeftHandIndex1
								{
									OFFSET 9.109314 -0.518021 2.259871
									CHANNELS 6 Xposition Yposition Zposition Xrotation Yrotation Zrotation
									JOINT mixamorig:LeftHandIndex2
									{
										OFFSET 3.699989 0.000000 -0.000322
										CHANNELS 6 Xposition Yposition Zposition Xrotation Yrotation Zrotation
										JOINT mixamorig:LeftHandIndex3
										{
											OFFSET 2.850006 0.000000 0.000352
											CHANNELS 6 Xposition Yposition Zposition Xrotation Yrotation Zrotation
											JOINT mixamorig:LeftHandIndex4
											{
												OFFSET 2.774864 -0.000031 -0.000027
												CHANNELS 6 Xposition Yposition Zposition Xrotation Yrotation Zrotation
												End Site
												{
													OFFSET 277.486267 0.000000 -0.009857
												}
											}
										}
									}
								}
								JOINT mixamorig:LeftHandMiddle1
								{
									OFFSET 9.533394 0.000061 0.000044
									CHANNELS 6 Xposition Yposition Zposition Xrotation Yrotation Zrotation
									JOINT mixamorig:LeftHandMiddle2
									{
										OFFSET 3.699989 -0.000015 -0.000231
										CHANNELS 6 Xposition Yposition Zposition Xrotation Yrotation Zrotation
										JOINT mixamorig:LeftHandMiddle3
										{
											OFFSET 2.949997 -0.000015 -0.000059
											CHANNELS 6 Xposition Yposition Zposition Xrotation Yrotation Zrotation
											JOINT mixamorig:LeftHandMiddle4
											{
												OFFSET 2.952896 0.000031 0.000063
												CHANNELS 6 Xposition Yposition Zposition Xrotation Yrotation Zrotation
												End Site
												{
													OFFSET 295.289337 0.000000 0.022810
												}
											}
										}
									}
								}
								JOINT mixamorig:LeftHandRing1
								{
									OFFSET 9.104523 -0.042999 -1.865074
									CHANNELS 6 Xposition Yposition Zposition Xrotation Yrotation Zrotation
									JOINT mixamorig:LeftHandRing2
									{
										OFFSET 3.150009 -0.000031 0.000043
										CHANNELS 6 Xposition Yposition Zposition Xrotation Yrotation Zrotation
										JOINT mixamorig:LeftHandRing3
										{
											OFFSET 2.949982 -0.000015 0.000040
											CHANNELS 6 Xposition Yposition Zposition Xrotation Yrotation Zrotation
											JOINT mixamorig:LeftHandRing4
											{
												OFFSET 2.644348 0.000000 0.000057
												CHANNELS 6 Xposition Yposition Zposition Xrotation Yrotation Zrotation
												End Site
												{
													OFFSET 264.434631 0.000000 0.012105
												}
											}
										}
									}
								}
								JOINT mixamorig:LeftHandPinky1
								{
									OFFSET 8.077789 -0.486847 -3.806259
									CHANNELS 6 Xposition Yposition Zposition Xrotation Yrotation Zrotation
									JOINT mixamorig:LeftHandPinky2
									{
										OFFSET 3.599953 0.000031 0.014727
										CHANNELS 6 Xposition Yposition Zposition Xrotation Yrotation Zrotation
										JOINT mixamorig:LeftHandPinky3
										{
											OFFSET 2.100021 0.000015 0.007705
											CHANNELS 6 Xposition Yposition Zposition Xrotation Yrotation Zrotation
											JOINT mixamorig:LeftHandPinky4
											{
												OFFSET 2.125504 0.000031 0.007517
												CHANNELS 6 Xposition Yposition Zposition Xrotation Yrotation Zrotation
												End Site
												{
													OFFSET 212.550781 0.000000 0.625752
												}
											}
										}
									}
								}
							}
						}
					}
				}
			}
		}
	}
	JOINT mixamorig:RightUpLeg
	{
		OFFSET -8.207787 -6.751648 -1.599560
		CHANNELS 6 Xposition Yposition Zposition Xrotation Yrotation Zrotation
		JOINT mixamorig:RightLeg
		{
			OFFSET -0.000002 -44.370117 0.345942
			CHANNELS 6 Xposition Yposition Zposition Xrotation Yrotation Zrotation
			JOINT mixamorig:RightFoot
			{
				OFFSET 0.000003 -44.423679 -3.043532
				CHANNELS 6 Xposition Yposition Zposition Xrotation Yrotation Zrotation
				JOINT mixamorig:RightToeBase
				{
					OFFSET -0.000002 -8.728671 10.710558
					CHANNELS 6 Xposition Yposition Zposition Xrotation Yrotation Zrotation
					JOINT mixamorig:RightToe_End
					{
						OFFSET -0.000001 -0.000679 9.278119
						CHANNELS 6 Xposition Yposition Zposition Xrotation Yrotation Zrotation
						End Site
						{
							OFFSET 0.000000 -0.067690 927.812134
						}
					}
				}
			}
		}
	}
	JOINT mixamorig:LeftUpLeg
	{
		OFFSET 8.207793 -6.751686 -1.599556
		CHANNELS 6 Xposition Yposition Zposition Xrotation Yrotation Zrotation
		JOINT mixamorig:LeftLeg
		{
			OFFSET -0.000004 -44.370014 0.346954
			CHANNELS 6 Xposition Yposition Zposition Xrotation Yrotation Zrotation
			JOINT mixamorig:LeftFoot
			{
				OFFSET -0.000001 -44.423672 -3.044401
				CHANNELS 6 Xposition Yposition Zposition Xrotation Yrotation Zrotation
				JOINT mixamorig:LeftToeBase
				{
					OFFSET -0.000002 -8.728669 10.710558
					CHANNELS 6 Xposition Yposition Zposition Xrotation Yrotation Zrotation
					JOINT mixamorig:LeftToe_End
					{
						OFFSET -0.000003 -0.000679 9.278133
						CHANNELS 6 Xposition Yposition Zposition Xrotation Yrotation Zrotation
						End Site
						{
							OFFSET 0.000000 -0.068021 927.813477
						}
					}
				}
			}
		}
	}
}
MOTION
Frames: 3
Frame Time: 0.033333
0.000006 104.270477 1.554256 0.000010 0.000003 -0.000113 -0.000005 10.181587 0.131522 0.000001 -0.000003 0.000084 -0.000000 9.893967 -1.470711 0.000001 0.000000 -0.000000 -0.000000 9.220802 -1.370642 0.000000 -0.000000 -0.000000 0.000001 16.740433 -2.049030 0.000000 -0.000000 -0.000000 0.000000 9.617859 1.685014 0.000000 0.000000 0.000000 0.000002 22.037384 7.501101 0.000000 -0.000000 0.000000 -4.569968 11.014880 -2.160881 0.000008 0.000001 -0.000038 -10.592865 -0.524676 -2.232029 71.753958 6.571787 -4.755657 -27.841522 0.000010 0.000540 -53.399556 115.841142 77.486993 -28.328850 0.000022 0.000023 -0.000318 -0.000044 0.000007 -2.464472 -1.573979 2.682415 -19.185602 -153.440145 46.813266 -3.215253 -1.872549 1.924644 155.557954 34.292737 18.717285 -2.654958 -1.527903 1.513102 151.848438 25.485620 -40.483501 -2.018838 -1.152015 1.108060 -0.000000 0.000006 0.000007 -9.108381 -0.517563 2.260147 103.601491 17.819916 -22.594653 -3.700064 0.000335 0.001534 99.241310 13.955509 -16.351008 -2.850084 0.000375 -0.000250 97.745895 10.391221 -11.889142 -2.772174 0.000001 -0.000014 0.000000 0.000000 -0.000002 -9.532592 0.000257 0.000288 99.038146 17.469370 -20.577391 -3.700066 0.000334 0.003999 97.237811 11.475187 -12.905681 -2.950070 0.000348 -0.001771 98.047120 9.848761 -11.322062 -2.946623 0.000000 -0.000152 -0.000003 0.000001 -0.000001 -9.103716 -0.042783 -1.864830 98.543026 19.748051 -22.805192 -3.379324 0.000337 -0.000797 95.540789 8.715699 -9.617020 -2.889734 0.000359 0.000651 99.509846 4.408237 -5.259018 -2.638813 -0.000009 0.000943 0.000004 -0.000000 0.000001 -8.076771 -0.486403 -3.806001 92.672574 20.338413 -21.126516 -3.600049 0.000285 -0.003500 96.722118 8.902323 -9.606618 -2.100003 0.000330 -0.005449 99.871518 4.307939 -4.865476 -2.115777 -0.000041 -0.003671 0.000000 -0.000002 -0.000003 4.570446 11.014691 -2.160851 -0.000018 0.000010 -0.000021 10.592362 -0.524523 -2.232307 70.518992 6.266290 -4.432271 27.841839 0.000107 -0.000203 109.312485 -64.151773 82.934609 28.328823 -0.000029 0.000021 0.000020 -0.000089 -0.000000 2.465973 -1.576175 2.681908 -39.270210 158.309196 -9.190417 3.217754 -1.871714 1.916365 152.139513 -32.214737 -10.208531 2.656096 -1.528568 1.514434 144.607741 -27.654012 32.226543 2.020881 -1.154065 1.115146 -0.000002 0.000002 -0.000003 9.109365 -0.517844 2.259760 91.052186 -15.805500 16.082083 3.700040 0.000183 -0.000469 88.971547 -14.784829 14.541560 2.850067 0.000190 0.000201 87.021220 -13.044055 12.386969 2.774893 -0.000026 -0.000033 0.000001 -0.000002 -0.000002 9.533468 0.000222 -0.000077 89.957259 -15.762162 15.741732 3.700064 0.000184 -0.000385 91.077574 -15.049968 15.329525 2.950074 0.000172 -0.000199 91.877130 -17.577671 18.156787 2.952880 -0.000018 0.000067 -0.000003 -0.000001 0.000001 9.104575 -0.042838 -1.865209 88.290256 -15.940442 15.479377 3.150065 0.000198 -0.000093 93.973977 -14.993394 16.059539 2.950031 0.000204 -0.000060 97.430722 -15.277704 17.371292 2.644322 0.000030 0.000058 -0.000001 0.000000 0.000001 8.077842 -0.486734 -3.806400 76.335758 -18.806629 15.311157 3.600012 0.000162 0.014569 77.045176 -14.084337 11.645619 2.100049 0.000195 0.007554 80.778332 -12.177768 10.783648 2.125498 -0.000015 0.007512 -0.000001 0.000000 0.000002 -8.207786 -6.751667 -1.599560 -0.077001 -0.000003 0.000080 -0.000002 -44.370110 0.345938 0.153719 -0.000000 -0.000000 0.000000 -44.423679 -3.043532 -0.076700 0.000000 -0.000002 -0.000006 -8.728667 10.710559 -0.000009 -0.000000 -0.000000 -0.000001 -0.000679 9.278123 0.000000 -0.000000 -0.000000 8.207792 -6.751710 -1.599556 -0.074518 -0.000003 0.000081 -0.000002 -44.370014 0.346960 0.148822 0.000002 0.000000 -0.000001 -44.423664 -3.044403 -0.074314 0.000000 -0.000002 -0.000004 -8.728671 10.710558 0.000007 -0.000000 -0.000000 0.000000 -0.000680 9.278137 -0.000000 0.000000 -0.000001 
0.000006 104.270477 1.554256 0.000010 0.000003 -0.000113 -0.000005 10.181587 0.131522 0.000001 -0.000003 0.000084 -0.000000 9.893967 -1.470711 0.000001 0.000000 -0.000000 -0.000000 9.220802 -1.370642 0.000000 -0.000000 -0.000000 0.000001 16.740433 -2.049030 0.000000 -0.000000 -0.000000 0.000000 9.617859 1.685014 0.000000 0.000000 0.000000 0.000002 22.037384 7.501101 0.000000 -0.000000 0.000000 -4.569968 11.014880 -2.160881 0.000008 0.000001 -0.000038 -10.592871 -0.524686 -2.232019 71.810355 9.080610 -6.581078 -27.841518 0.000009 0.000535 -52.438975 116.736812 77.286869 -28.328829 0.000020 0.000019 -0.000322 -0.000043 0.000007 -2.464394 -1.573846 2.682349 -40.086937 -154.870947 6.656434 -3.215223 -1.872499 1.924618 147.382314 33.843096 31.933996 -2.654967 -1.527893 1.513073 148.301958 27.407994 -30.035525 -2.018822 -1.152001 1.108070 0.000001 -0.000003 0.000000 -9.108379 -0.517556 2.260141 104.293806 16.051365 -20.625790 -3.700082 0.000318 0.001529 99.818324 13.724530 -16.243829 -2.850077 0.000376 -0.000249 98.631299 11.020228 -12.804288 -2.772162 -0.000018 -0.000015 0.000001 -0.000001 -0.000000 -9.532595 0.000262 0.000269 98.204637 16.929500 -19.663596 -3.700058 0.000328 0.003987 95.574079 12.472348 -13.632581 -2.950070 0.000332 -0.001791 98.822578 11.155456 -12.997401 -2.946622 0.000014 -0.000154 -0.000003 0.000000 -0.000001 -9.103704 -0.042765 -1.864832 96.523086 18.951746 -21.142485 -3.379342 0.000330 -0.000803 95.493476 9.051959 -9.978840 -2.889741 0.000353 0.000687 103.887450 5.938476 -7.638680 -2.638815 -0.000013 0.000944 -0.000000 0.000000 0.000002 -8.076764 -0.486396 -3.805995 90.721844 19.842277 -19.932763 -3.600030 0.000298 -0.003516 93.756040 7.983030 -8.145801 -2.100018 0.000315 -0.005454 99.544106 3.572823 -3.971595 -2.115773 -0.000054 -0.003677 0.000003 0.000000 -0.000004 4.570446 11.014691 -2.160851 -0.000018 0.000010 -0.000021 10.592360 -0.524540 -2.232265 70.433402 14.309388 -10.126739 27.841860 0.000109 -0.000213 109.213092 -64.454692 83.163789 28.328812 -0.000044 0.000019 0.000019 -0.000088 -0.000001 2.466076 -1.576170 2.681893 -25.224826 157.051485 -38.205220 3.217803 -1.871744 1.916366 160.299977 -30.629024 4.431612 2.656112 -1.528645 1.514470 145.123160 -26.387746 46.457188 2.020887 -1.154054 1.115138 -0.000000 0.000003 0.000004 9.109379 -0.517845 2.259736 93.355483 -18.809448 19.909059 3.700047 0.000173 -0.000482 91.765203 -14.052276 14.505023 2.850058 0.000224 0.000202 90.925992 -11.280801 11.462089 2.774877 -0.000028 -0.000029 0.000001 -0.000001 0.000001 9.533463 0.000218 -0.000094 90.958592 -18.601552 18.900566 3.700045 0.000192 -0.000377 92.229998 -12.783870 13.284125 2.950058 0.000193 -0.000202 93.621949 -12.575973 13.393091 2.952866 -0.000030 0.000069 0.000001 0.000000 -0.000000 9.104599 -0.042848 -1.865220 88.967018 -18.245375 17.926658 3.150062 0.000200 -0.000099 93.400132 -12.439631 13.196066 2.950036 0.000200 -0.000082 95.608175 -10.971155 12.095167 2.644326 0.000047 0.000054 0.000002 -0.000004 -0.000000 8.077827 -0.486730 -3.806409 77.979915 -19.805670 16.583406 3.599999 0.000184 0.014583 78.898432 -15.867878 13.517901 2.100048 0.000187 0.007542 81.267770 -11.640162 10.411358 2.125507 0.000000 0.007517 0.000003 -0.000001 -0.000001 -8.207786 -6.751667 -1.599560 -0.077001 -0.000003 0.000080 -0.000002 -44.370110 0.345938 0.153719 -0.000000 -0.000000 0.000000 -44.423679 -3.043532 -0.076700 0.000000 -0.000002 -0.000006 -8.728667 10.710559 -0.000009 -0.000000 -0.000000 -0.000001 -0.000679 9.278123 0.000000 -0.000000 -0.000000 8.207792 -6.751710 -1.599556 -0.074518 -0.000003 0.000081 -0.000002 -44.370014 0.346960 0.148822 0.000002 0.000000 -0.000001 -44.423664 -3.044403 -0.074314 0.000000 -0.000002 -0.000004 -8.728671 10.710558 0.000007 -0.000000 -0.000000 0.000000 -0.000680 9.278137 -0.000000 0.000000 -0.000001 
0.000006 104.270477 1.554256 0.000010 0.000003 -0.000113 -0.000005 10.181587 0.131522 0.000001 -0.000003 0.000084 -0.000000 9.893967 -1.470711 0.000001 0.000000 -0.000000 -0.000000 9.220802 -1.370642 0.000000 -0.000000 -0.000000 0.000001 16.740433 -2.049030 0.000000 -0.000000 -0.000000 0.000000 9.617859 1.685014 0.000000 0.000000 0.000000 0.000002 22.037384 7.501101 0.000000 -0.000000 0.000000 -4.569968 11.014880 -2.160881 0.000008 0.000001 -0.000038 -10.592883 -0.524711 -2.231971 71.738208 17.111046 -12.416255 -27.841513 0.000003 0.000563 -51.561822 112.970584 72.209354 -28.328821 0.000007 0.000027 -0.000319 -0.000046 0.000007 -2.464393 -1.573829 2.682348 -43.212797 -157.142340 0.379215 -3.215226 -1.872502 1.924615 146.253051 33.735582 34.498773 -2.654958 -1.527882 1.513062 148.559770 27.640182 -27.478304 -2.018830 -1.152020 1.108069 -0.000003 -0.000000 0.000000 -9.108362 -0.517556 2.260144 103.649965 14.565892 -18.523630 -3.700067 0.000321 0.001524 100.235273 12.673335 -15.112154 -2.850048 0.000373 -0.000256 98.847543 10.181883 -11.876983 -2.772163 -0.000016 -0.000021 -0.000002 -0.000000 -0.000000 -9.532574 0.000273 0.000260 97.688671 15.157443 -17.471161 -3.700066 0.000329 0.003980 96.230426 11.626888 -12.849672 -2.950073 0.000349 -0.001785 99.141978 10.873558 -12.740619 -2.946633 0.000000 -0.000154 -0.000002 0.000000 0.000000 -9.103689 -0.042749 -1.864853 96.400347 17.580198 -19.574182 -3.379317 0.000325 -0.000791 95.396692 8.580916 -9.444896 -2.889756 0.000366 0.000670 103.396059 6.054698 -7.718743 -2.638813 -0.000044 0.000940 -0.000001 -0.000001 0.000002 -8.076739 -0.486380 -3.805990 90.913035 18.538474 -18.676158 -3.600042 0.000293 -0.003513 92.363965 6.953949 -6.883657 -2.100005 0.000340 -0.005463 97.335441 2.931098 -3.092891 -2.115782 -0.000043 -0.003680 -0.000002 -0.000000 -0.000004 4.570446 11.014691 -2.160851 -0.000018 0.000010 -0.000021 10.592360 -0.524529 -2.232272 69.933077 8.368890 -5.857932 27.841846 0.000100 -0.000206 109.310040 -65.439592 84.346607 28.328848 -0.000029 0.000021 0.000019 -0.000089 -0.000000 2.466207 -1.576130 2.681863 -4.399962 158.582786 -74.781289 3.217837 -1.871778 1.916384 163.181757 -27.255228 19.718174 2.656109 -1.528633 1.514465 146.780847 -26.070678 45.019098 2.020906 -1.154086 1.115149 0.000007 0.000008 0.000006 9.109394 -0.517840 2.259734 98.156218 -19.591709 22.513238 3.700055 0.000176 -0.000449 96.038313 -13.402926 14.898401 2.850052 0.000228 0.000200 94.265189 -10.638231 11.454514 2.774892 -0.000016 -0.000022 0.000000 -0.000002 -0.000002 9.533473 0.000221 -0.000075 93.217985 -19.821212 20.932604 3.700040 0.000192 -0.000368 94.527557 -12.340173 13.344243 2.950055 0.000184 -0.000195 94.978664 -11.390509 12.421321 2.952871 -0.000031 0.000065 -0.000002 0.000000 0.000001 9.104589 -0.042849 -1.865223 89.889162 -19.424752 19.389929 3.150045 0.000211 -0.000096 94.276500 -12.790437 13.775368 2.950024 0.000209 -0.000080 95.693867 -10.332838 11.409422 2.644308 0.000034 0.000055 -0.000001 0.000003 0.000001 8.077848 -0.486732 -3.806374 78.710280 -20.786243 17.614173 3.600007 0.000178 0.014571 79.599175 -17.150631 14.766801 2.100031 0.000161 0.007541 81.233181 -12.237253 10.921533 2.125504 -0.000028 0.007516 0.000002 -0.000003 -0.000003 -8.207786 -6.751667 -1.599560 -0.077001 -0.000003 0.000080 -0.000002 -44.370110 0.345938 0.153719 -0.000000 -0.000000 0.000000 -44.423679 -3.043532 -0.076700 0.000000 -0.000002 -0.000006 -8.728667 10.710559 -0.000009 -0.000000 -0.000000 -0.000001 -0.000679 9.278123 0.000000 -0.000000 -0.000000 8.207792 -6.751710 -1.599556 -0.074518 -0.000003 0.000081 -0.000002 -44.370014 0.346960 0.148822 0.000002 0.000000 -0.000001 -44.423664 -3.044403 -0.074314 0.000000 -0.000002 -0.000004 -8.728671 10.710558 0.000007 -0.000000 -0.000000 0.000000 -0.000680 9.278137 -0.000000 0.000000 -0.000001 
